{
  "source": "C:\\Users\\Peter\\Desktop\\stuff\\MIUN\\quantitative_research\\video_compression\\videos\\UVG\\Jockey_1920x1080_120fps_420_8bit_YUV.y4m",
  "output": "C:\\Users\\Peter\\Desktop\\stuff\\MIUN\\quantitative_research\\video_compression\\compressed_videos\\UVG\\h264\\12\\Jockey_1920x1080_120fps_420_8bit_YUV_h264.mp4",
  "codec": "h264",
  "ok": "[yuv4mpegpipe @ 0000024f6d385e80] Stream #0: not enough frames to estimate rate; consider increasing probesize\nInput #0, yuv4mpegpipe, from 'C:\\Users\\Peter\\Desktop\\stuff\\MIUN\\quantitative_research\\video_compression\\videos\\UVG\\Jockey_1920x1080_120fps_420_8bit_YUV.y4m':\n  Duration: 00:00:05.00, start: 0.000000, bitrate: 2985989 kb/s\n  Stream #0:0: Video: rawvideo (I420 / 0x30323449), yuv420p(progressive), 1920x1080, 120 fps, 120 tbr, 120 tbn\n[out#0/mp4 @ 0000024f6d389d00] Codec AVOption b:a (set bitrate (in bits/s)) has not been used for any stream. The most likely reason is either wrong type (e.g. a video option with no video streams) or that it is a private option of some decoder which was not actually used for any stream.\nStream mapping:\n  Stream #0:0 -> #0:0 (rawvideo (native) -> h264 (libx264))\nPress [q] to stop, [?] for help\n[libx264 @ 0000024f6d38cdc0] using cpu capabilities: MMX2 SSE2Fast SSSE3 SSE4.2 AVX FMA3 BMI2 AVX2\n[libx264 @ 0000024f6d38cdc0] profile High, level 5.1, 4:2:0, 8-bit\n[libx264 @ 0000024f6d38cdc0] 264 - core 165 r3222 b35605a - H.264/MPEG-4 AVC codec - Copyleft 2003-2025 - http://www.videolan.org/x264.html - options: cabac=1 ref=5 deblock=1:0:0 analyse=0x3:0x113 me=hex subme=8 psy=1 psy_rd=1.00:0.00 mixed_ref=1 me_range=16 chroma_me=1 trellis=2 8x8dct=1 cqm=0 deadzone=21,11 fast_pskip=1 chroma_qp_offset=-2 threads=18 lookahead_threads=3 sliced_threads=0 nr=0 decimate=1 interlaced=0 bluray_compat=0 constrained_intra=0 bframes=3 b_pyramid=2 b_adapt=1 b_bias=0 direct=3 weightb=1 open_gop=0 weightp=2 keyint=250 keyint_min=25 scenecut=40 intra_refresh=0 rc_lookahead=50 rc=cbr mbtree=1 bitrate=12000 ratetol=1.0 qcomp=0.60 qpmin=0 qpmax=69 qpstep=4 vbv_maxrate=12000 vbv_bufsize=12000 nal_hrd=none filler=0 ip_ratio=1.40 aq=1:1.00\nOutput #0, mp4, to 'C:\\Users\\Peter\\Desktop\\stuff\\MIUN\\quantitative_research\\video_compression\\compressed_videos\\UVG\\h264\\12\\Jockey_1920x1080_120fps_420_8bit_YUV_h264.mp4':\n  Metadata:\n    encoder         : Lavf62.3.100\n  Stream #0:0: Video: h264 (avc1 / 0x31637661), yuv420p(tv, progressive), 1920x1080, q=2-31, 12000 kb/s, 120 fps, 15360 tbn\n    Metadata:\n      encoder         : Lavc62.11.100 libx264\n    Side data:\n      cpb: bitrate max/min/avg: 12000000/0/12000000 buffer size: 12000000 vbv_delay: N/A\nframe=    0 fps=0.0 q=0.0 size=       0KiB time=N/A bitrate=N/A speed=N/A elapsed=0:00:00.51    \nframe=    0 fps=0.0 q=0.0 size=       0KiB time=N/A bitrate=N/A speed=N/A elapsed=0:00:01.07    \nframe=    0 fps=0.0 q=0.0 size=       0KiB time=N/A bitrate=N/A speed=N/A elapsed=0:00:01.59    \nframe=    0 fps=0.0 q=0.0 size=       0KiB time=N/A bitrate=N/A speed=N/A elapsed=0:00:02.12    \nframe=    0 fps=0.0 q=0.0 size=       0KiB time=N/A bitrate=N/A speed=N/A elapsed=0:00:02.66    \nframe=    1 fps=0.3 q=34.0 size=       0KiB time=-00:00:00.00 bitrate=N/A speed=N/A elapsed=0:00:03.20    \nframe=   12 fps=3.2 q=32.0 size=       0KiB time=00:00:00.08 bitrate=   4.6kbits/s speed=0.0222x elapsed=0:00:03.74    \nframe=   22 fps=5.1 q=30.0 size=       0KiB time=00:00:00.16 bitrate=   2.3kbits/s speed=0.0387x elapsed=0:00:04.30    \nframe=   25 fps=5.2 q=29.0 size=       0KiB time=00:00:00.19 bitrate=   2.0kbits/s speed=0.0396x elapsed=0:00:04.84    \nframe=   33 fps=6.1 q=29.0 size=       0KiB time=00:00:00.25 bitrate=   1.5kbits/s speed=0.0465x elapsed=0:00:05.38    \nframe=   42 fps=7.1 q=29.0 size=     256KiB time=00:00:00.32 bitrate=6454.0kbits/s speed=0.0548x elapsed=0:00:05.93    \nframe=   47 fps=7.2 q=29.0 size=     256KiB time=00:00:00.37 bitrate=5593.4kbits/s speed=0.0578x elapsed=0:00:06.48    \nframe=   52 fps=7.4 q=29.0 size=     256KiB time=00:00:00.41 bitrate=5034.1kbits/s speed=0.0591x elapsed=0:00:07.04    \nframe=   58 fps=7.6 q=29.0 size=     256KiB time=00:00:00.46 bitrate=4494.7kbits/s speed=0.0615x elapsed=0:00:07.58    \nframe=   63 fps=7.7 q=29.0 size=     512KiB time=00:00:00.50 bitrate=8389.4kbits/s speed=0.0615x elapsed=0:00:08.13    \nframe=   70 fps=8.1 q=29.0 size=     512KiB time=00:00:00.56 bitrate=7402.4kbits/s speed=0.0653x elapsed=0:00:08.68    \nframe=   71 fps=7.7 q=29.0 size=     512KiB time=00:00:00.56 bitrate=7402.4kbits/s speed=0.0614x elapsed=0:00:09.23    \nframe=   81 fps=8.3 q=29.0 size=     512KiB time=00:00:00.65 bitrate=6371.7kbits/s speed=0.0672x elapsed=0:00:09.79    \nframe=   91 fps=8.8 q=29.0 size=     768KiB time=00:00:00.72 bitrate=8678.4kbits/s speed=0.0701x elapsed=0:00:10.34    \nframe=   95 fps=8.7 q=29.0 size=     768KiB time=00:00:00.77 bitrate=8118.5kbits/s speed=0.0712x elapsed=0:00:10.89    \nframe=   98 fps=8.6 q=29.0 size=     768KiB time=00:00:00.80 bitrate=7864.8kbits/s speed=0.0699x elapsed=0:00:11.44    \nframe=  106 fps=8.8 q=29.0 size=    1024KiB time=00:00:00.86 bitrate=9679.6kbits/s speed=0.0722x elapsed=0:00:12.00    \nframe=  111 fps=8.8 q=29.0 size=    1024KiB time=00:00:00.90 bitrate=9235.6kbits/s speed=0.0723x elapsed=0:00:12.55    \nframe=  116 fps=8.9 q=29.0 size=    1024KiB time=00:00:00.95 bitrate=8830.5kbits/s speed=0.0726x elapsed=0:00:13.09    \nframe=  127 fps=9.3 q=29.0 size=    1280KiB time=00:00:01.00 bitrate=10486.1kbits/s speed=0.0733x elapsed=0:00:13.65    \nframe=  129 fps=9.1 q=29.0 size=    1280KiB time=00:00:01.05 bitrate=9908.2kbits/s speed=0.0745x elapsed=0:00:14.21    \nframe=  137 fps=9.3 q=29.0 size=    1280KiB time=00:00:01.10 bitrate=9461.2kbits/s speed=0.0751x elapsed=0:00:14.75    \nframe=  145 fps=9.5 q=29.0 size=    1536KiB time=00:00:01.19 bitrate=10559.4kbits/s speed=0.0778x elapsed=0:00:15.31    \nframe=  155 fps=9.8 q=29.0 size=    1536KiB time=00:00:01.25 bitrate=10066.6kbits/s speed=0.0788x elapsed=0:00:15.85    \nframe=  161 fps=9.8 q=29.0 size=    1536KiB time=00:00:01.31 bitrate=9556.9kbits/s speed=0.0802x elapsed=0:00:16.41    \nframe=  166 fps=9.8 q=29.0 size=    1792KiB time=00:00:01.36 bitrate=10741.8kbits/s speed=0.0806x elapsed=0:00:16.96    \nframe=  166 fps=9.5 q=29.0 size=    1792KiB time=00:00:01.36 bitrate=10741.8kbits/s speed=0.078x elapsed=0:00:17.51    \nframe=  177 fps=9.8 q=29.0 size=    1792KiB time=00:00:01.45 bitrate=10066.6kbits/s speed=0.0807x elapsed=0:00:18.07    \nframe=  183 fps=9.8 q=29.0 size=    2048KiB time=00:00:01.50 bitrate=11123.3kbits/s speed=0.0809x elapsed=0:00:18.63    \nframe=  184 fps=9.6 q=29.0 size=    2048KiB time=00:00:01.51 bitrate=11062.2kbits/s speed=0.079x elapsed=0:00:19.20    \nframe=  190 fps=9.6 q=29.0 size=    2048KiB time=00:00:01.56 bitrate=10709.1kbits/s speed=0.0793x elapsed=0:00:19.76    \nframe=  192 fps=9.4 q=29.0 size=    2048KiB time=00:00:01.57 bitrate=10652.4kbits/s speed=0.0775x elapsed=0:00:20.32    \nframe=  199 fps=9.5 q=29.0 size=    2048KiB time=00:00:01.64 bitrate=10219.9kbits/s speed=0.0786x elapsed=0:00:20.87    \nframe=  204 fps=9.5 q=29.0 size=    2304KiB time=00:00:01.68 bitrate=11212.7kbits/s speed=0.0785x elapsed=0:00:21.43    \nframe=  208 fps=9.5 q=29.0 size=    2304KiB time=00:00:01.71 bitrate=10995.0kbits/s speed=0.078x elapsed=0:00:22.00    \nframe=  219 fps=9.7 q=29.0 size=    2304KiB time=00:00:01.80 bitrate=10437.7kbits/s speed=0.0801x elapsed=0:00:22.56    \nframe=  224 fps=9.7 q=29.0 size=    2560KiB time=00:00:01.83 bitrate=11439.2kbits/s speed=0.0793x elapsed=0:00:23.12    \nframe=  224 fps=9.5 q=29.0 size=    2560KiB time=00:00:01.85 bitrate=11336.2kbits/s speed=0.0781x elapsed=0:00:23.69    \nframe=  225 fps=9.3 q=29.0 size=    2560KiB time=00:00:01.85 bitrate=11285.3kbits/s speed=0.0766x elapsed=0:00:24.25    \nframe=  225 fps=9.1 q=29.0 size=    2560KiB time=00:00:01.85 bitrate=11285.3kbits/s speed=0.075x elapsed=0:00:24.78    \nframe=  226 fps=8.9 q=29.0 size=    2560KiB time=00:00:01.86 bitrate=11234.9kbits/s speed=0.0737x elapsed=0:00:25.34    \nframe=  236 fps=9.1 q=29.0 size=    2560KiB time=00:00:01.95 bitrate=10754.8kbits/s speed=0.0754x elapsed=0:00:25.86    \nframe=  244 fps=9.2 q=29.0 size=    2816KiB time=00:00:02.01 bitrate=11439.2kbits/s speed=0.0764x elapsed=0:00:26.40    \nframe=  252 fps=9.4 q=30.0 size=    3072KiB time=00:00:02.08 bitrate=12079.8kbits/s speed=0.0773x elapsed=0:00:26.95    \nframe=  260 fps=9.4 q=30.0 size=    3072KiB time=00:00:02.15 bitrate=11705.2kbits/s speed=0.0781x elapsed=0:00:27.51    \nframe=  265 fps=9.4 q=30.0 size=    3072KiB time=00:00:02.19 bitrate=11482.7kbits/s speed=0.0781x elapsed=0:00:28.06    \nframe=  270 fps=9.4 q=30.0 size=    3072KiB time=00:00:02.23 bitrate=11268.5kbits/s speed=0.0781x elapsed=0:00:28.60    \nframe=  277 fps=9.5 q=31.0 size=    3328KiB time=00:00:02.29 bitrate=11896.7kbits/s speed=0.0786x elapsed=0:00:29.15    \nframe=  277 fps=9.3 q=31.0 size=    3328KiB time=00:00:02.29 bitrate=11896.7kbits/s speed=0.0772x elapsed=0:00:29.69    \nframe=  285 fps=9.4 q=32.0 size=    3328KiB time=00:00:02.35 bitrate=11560.4kbits/s speed=0.078x elapsed=0:00:30.24    \nframe=  289 fps=9.4 q=32.0 size=    3584KiB time=00:00:02.38 bitrate=12319.1kbits/s speed=0.0774x elapsed=0:00:30.80    \nframe=  297 fps=9.5 q=32.0 size=    3584KiB time=00:00:02.45 bitrate=11943.3kbits/s speed=0.0784x elapsed=0:00:31.36    \nframe=  305 fps=9.6 q=34.0 size=    3840KiB time=00:00:02.51 bitrate=12499.7kbits/s speed=0.0788x elapsed=0:00:31.92    \nframe=  305 fps=9.4 q=34.0 size=    3840KiB time=00:00:02.52 bitrate=12458.5kbits/s speed=0.0778x elapsed=0:00:32.47    \nframe=  311 fps=9.4 q=34.0 size=    3840KiB time=00:00:02.57 bitrate=12216.6kbits/s speed=0.078x elapsed=0:00:33.02    \nframe=  316 fps=9.4 q=34.0 size=    4096KiB time=00:00:02.60 bitrate=12864.5kbits/s speed=0.0777x elapsed=0:00:33.57    \nframe=  324 fps=9.5 q=34.0 size=    4096KiB time=00:00:02.66 bitrate=12583.1kbits/s speed=0.0781x elapsed=0:00:34.13    \nframe=  327 fps=9.4 q=34.0 size=    4096KiB time=00:00:02.70 bitrate=12389.5kbits/s speed=0.0781x elapsed=0:00:34.67    \nframe=  327 fps=9.3 q=34.0 size=    4096KiB time=00:00:02.70 bitrate=12389.5kbits/s speed=0.0769x elapsed=0:00:35.20    \nframe=  331 fps=9.3 q=34.0 size=    4096KiB time=00:00:02.74 bitrate=12238.8kbits/s speed=0.0767x elapsed=0:00:35.74    \nframe=  344 fps=9.5 q=35.0 size=    4352KiB time=00:00:02.85 bitrate=12509.5kbits/s speed=0.0786x elapsed=0:00:36.27    \nframe=  347 fps=9.4 q=35.0 size=    4352KiB time=00:00:02.87 bitrate=12400.7kbits/s speed=0.0781x elapsed=0:00:36.82    \nframe=  354 fps=9.5 q=34.0 size=    4608KiB time=00:00:02.93 bitrate=12869.0kbits/s speed=0.0785x elapsed=0:00:37.34    \nframe=  365 fps=9.6 q=33.0 size=    4608KiB time=00:00:03.02 bitrate=12479.0kbits/s speed=0.0799x elapsed=0:00:37.88    \nframe=  375 fps=9.8 q=33.0 size=    4608KiB time=00:00:03.10 bitrate=12144.5kbits/s speed=0.0809x elapsed=0:00:38.41    \nframe=  378 fps=9.7 q=33.0 size=    4864KiB time=00:00:03.13 bitrate=12716.9kbits/s speed=0.0804x elapsed=0:00:38.95    \nframe=  378 fps=9.6 q=33.0 size=    4864KiB time=00:00:03.13 bitrate=12716.9kbits/s speed=0.0793x elapsed=0:00:39.48    \nframe=  389 fps=9.7 q=33.0 size=    4864KiB time=00:00:03.22 bitrate=12355.4kbits/s speed=0.0806x elapsed=0:00:40.03    \nframe=  397 fps=9.8 q=33.0 size=    5120KiB time=00:00:03.29 bitrate=12742.3kbits/s speed=0.0811x elapsed=0:00:40.58    \nframe=  398 fps=9.7 q=33.0 size=    5120KiB time=00:00:03.30 bitrate=12710.1kbits/s speed=0.0802x elapsed=0:00:41.14    \nframe=  398 fps=9.5 q=33.0 size=    5120KiB time=00:00:03.30 bitrate=12710.1kbits/s speed=0.0791x elapsed=0:00:41.70    \nframe=  399 fps=9.4 q=32.0 size=    5120KiB time=00:00:03.30 bitrate=12678.1kbits/s speed=0.0783x elapsed=0:00:42.24    \nframe=  399 fps=9.3 q=32.0 size=    5120KiB time=00:00:03.30 bitrate=12678.1kbits/s speed=0.0773x elapsed=0:00:42.80    \nframe=  409 fps=9.4 q=33.0 size=    5120KiB time=00:00:03.39 bitrate=12366.6kbits/s speed=0.0782x elapsed=0:00:43.34    \nframe=  417 fps=9.5 q=32.0 size=    5120KiB time=00:00:03.45 bitrate=12128.2kbits/s speed=0.0788x elapsed=0:00:43.90    \nframe=  423 fps=9.5 q=32.0 size=    5376KiB time=00:00:03.49 bitrate=12613.1kbits/s speed=0.0785x elapsed=0:00:44.47    \nframe=  423 fps=9.4 q=32.0 size=    5376KiB time=00:00:03.50 bitrate=12553.1kbits/s speed=0.0779x elapsed=0:00:45.04    \nframe=  427 fps=9.4 q=32.0 size=    5376KiB time=00:00:03.54 bitrate=12435.0kbits/s speed=0.0777x elapsed=0:00:45.59    \nframe=  428 fps=9.3 q=32.0 size=    5376KiB time=00:00:03.55 bitrate=12405.8kbits/s speed=0.0769x elapsed=0:00:46.14    \nframe=  430 fps=9.2 q=32.0 size=    5376KiB time=00:00:03.56 bitrate=12347.8kbits/s speed=0.0764x elapsed=0:00:46.67    \nframe=  433 fps=9.2 q=32.0 size=    5376KiB time=00:00:03.59 bitrate=12261.9kbits/s speed=0.0761x elapsed=0:00:47.21    \nframe=  438 fps=9.2 q=32.0 size=    5376KiB time=00:00:03.62 bitrate=12149.1kbits/s speed=0.0759x elapsed=0:00:47.75    \nframe=  442 fps=9.2 q=32.0 size=    5376KiB time=00:00:03.66 bitrate=12011.1kbits/s speed=0.0759x elapsed=0:00:48.28    \nframe=  447 fps=9.2 q=32.0 size=    5376KiB time=00:00:03.70 bitrate=11876.1kbits/s speed=0.076x elapsed=0:00:48.82    \nframe=  452 fps=9.2 q=32.0 size=    5632KiB time=00:00:03.75 bitrate=12303.4kbits/s speed=0.076x elapsed=0:00:49.34    \nframe=  458 fps=9.2 q=31.0 size=    5632KiB time=00:00:03.79 bitrate=12168.2kbits/s speed=0.076x elapsed=0:00:49.86    \nframe=  463 fps=9.2 q=31.0 size=    5632KiB time=00:00:03.84 bitrate=12009.8kbits/s speed=0.0762x elapsed=0:00:50.39    \nframe=  468 fps=9.2 q=31.0 size=    5632KiB time=00:00:03.88 bitrate=11881.0kbits/s speed=0.0762x elapsed=0:00:50.93    \nframe=  472 fps=9.2 q=31.0 size=    5632KiB time=00:00:03.91 bitrate=11779.8kbits/s speed=0.0761x elapsed=0:00:51.46    \nframe=  476 fps=9.1 q=31.0 size=    5632KiB time=00:00:03.95 bitrate=11680.4kbits/s speed=0.0759x elapsed=0:00:52.04    \nframe=  480 fps=9.1 q=31.0 size=    5888KiB time=00:00:03.98 bitrate=12109.2kbits/s speed=0.0757x elapsed=0:00:52.59    \nframe=  484 fps=9.1 q=31.0 size=    5888KiB time=00:00:04.00 bitrate=12033.7kbits/s speed=0.0754x elapsed=0:00:53.13    \nframe=  487 fps=9.1 q=31.0 size=    5888KiB time=00:00:04.04 bitrate=11934.4kbits/s speed=0.0753x elapsed=0:00:53.68    \nframe=  492 fps=9.1 q=31.0 size=    5888KiB time=00:00:04.08 bitrate=11812.6kbits/s speed=0.0753x elapsed=0:00:54.22    \nframe=  497 fps=9.1 q=31.0 size=    5888KiB time=00:00:04.12 bitrate=11693.3kbits/s speed=0.0753x elapsed=0:00:54.76    \nframe=  500 fps=9.0 q=31.0 size=    5888KiB time=00:00:04.15 bitrate=11622.9kbits/s speed=0.075x elapsed=0:00:55.29    \nframe=  503 fps=9.0 q=31.0 size=    5888KiB time=00:00:04.17 bitrate=11553.3kbits/s speed=0.0748x elapsed=0:00:55.83    \nframe=  507 fps=9.0 q=31.0 size=    5888KiB time=00:00:04.20 bitrate=11461.8kbits/s speed=0.0747x elapsed=0:00:56.36    \nframe=  517 fps=9.1 q=31.0 size=    6144KiB time=00:00:04.28 bitrate=11750.7kbits/s speed=0.0753x elapsed=0:00:56.89    \nframe=  525 fps=9.1 q=31.0 size=    6144KiB time=00:00:04.35 bitrate=11548.5kbits/s speed=0.0759x elapsed=0:00:57.43    \nframe=  533 fps=9.2 q=31.0 size=    6400KiB time=00:00:04.42 bitrate=11848.4kbits/s speed=0.0763x elapsed=0:00:57.98    \nframe=  542 fps=9.3 q=31.0 size=    6400KiB time=00:00:04.50 bitrate=11650.9kbits/s speed=0.0769x elapsed=0:00:58.52    \nframe=  550 fps=9.3 q=31.0 size=    6400KiB time=00:00:04.56 bitrate=11480.8kbits/s speed=0.0773x elapsed=0:00:59.08    \nframe=  550 fps=9.2 q=31.0 size=    6400KiB time=00:00:04.56 bitrate=11480.8kbits/s speed=0.0766x elapsed=0:00:59.62    \nframe=  566 fps=9.4 q=30.0 size=    6656KiB time=00:00:04.70 bitrate=11601.3kbits/s speed=0.0781x elapsed=0:01:00.17    \nframe=  574 fps=9.5 q=30.0 size=    6656KiB time=00:00:04.76 bitrate=11439.1kbits/s speed=0.0785x elapsed=0:01:00.72    \nframe=  578 fps=9.4 q=30.0 size=    6656KiB time=00:00:04.80 bitrate=11359.7kbits/s speed=0.0783x elapsed=0:01:01.26    \nframe=  586 fps=9.5 q=-1.0 size=    6656KiB time=00:00:04.86 bitrate=11204.0kbits/s speed=0.0787x elapsed=0:01:01.81    \nframe=  590 fps=9.5 q=-1.0 size=    6912KiB time=00:00:04.89 bitrate=11575.5kbits/s speed=0.0785x elapsed=0:01:02.35    \n[mp4 @ 0000024f6d389e00] Starting second pass: moving the moov atom to the beginning of the file\n[out#0/mp4 @ 0000024f6d389d00] video:7070KiB audio:0KiB subtitle:0KiB other streams:0KiB global headers:0KiB muxing overhead: 0.100544%\nframe=  600 fps=9.5 q=-1.0 Lsize=    7077KiB time=00:00:04.98 bitrate=11633.8kbits/s speed=0.0792x elapsed=0:01:02.90    \n[libx264 @ 0000024f6d38cdc0] frame I:7     Avg QP:26.70  size: 42748\n[libx264 @ 0000024f6d38cdc0] frame P:230   Avg QP:27.60  size: 18020\n[libx264 @ 0000024f6d38cdc0] frame B:363   Avg QP:29.61  size:  7700\n[libx264 @ 0000024f6d38cdc0] consecutive B-frames: 16.2%  5.7% 11.5% 66.7%\n[libx264 @ 0000024f6d38cdc0] mb I  I16..4: 38.5% 56.2%  5.2%\n[libx264 @ 0000024f6d38cdc0] mb P  I16..4:  4.9%  5.3%  0.3%  P16..4: 34.3%  5.3%  6.4%  0.0%  0.0%    skip:43.6%\n[libx264 @ 0000024f6d38cdc0] mb B  I16..4:  0.6%  0.9%  0.0%  B16..8: 39.0%  2.6%  0.4%  direct: 0.9%  skip:55.8%  L0:43.7% L1:54.8% BI: 1.4%\n[libx264 @ 0000024f6d38cdc0] 8x8 transform intra:53.0% inter:90.4%\n[libx264 @ 0000024f6d38cdc0] direct mvs  spatial:97.5% temporal:2.5%\n[libx264 @ 0000024f6d38cdc0] coded y,uvDC,uvAC intra: 35.4% 53.6% 13.4% inter: 6.6% 11.6% 0.3%\n[libx264 @ 0000024f6d38cdc0] i16 v,h,dc,p:  9% 46%  2% 42%\n[libx264 @ 0000024f6d38cdc0] i8 v,h,dc,ddl,ddr,vr,hd,vl,hu:  7% 11%  4%  9% 17% 12% 18%  8% 14%\n[libx264 @ 0000024f6d38cdc0] i4 v,h,dc,ddl,ddr,vr,hd,vl,hu:  8% 10%  4% 10% 19% 13% 17%  8% 13%\n[libx264 @ 0000024f6d38cdc0] i8c dc,h,v,p: 29% 42% 14% 16%\n[libx264 @ 0000024f6d38cdc0] Weighted P-Frames: Y:0.0% UV:0.0%\n[libx264 @ 0000024f6d38cdc0] ref P L0: 58.3% 17.1% 11.8%  6.1%  5.3%  1.4%\n[libx264 @ 0000024f6d38cdc0] ref B L0: 90.9%  5.8%  2.5%  0.8%\n[libx264 @ 0000024f6d38cdc0] ref B L1: 98.5%  1.5%\n[libx264 @ 0000024f6d38cdc0] kb/s:11582.18\n",
  "seconds": 63.46867823600769,
  "probe_out": {}
}